<?xml version="1.0" encoding="utf-8"?>
<!DOCTYPE svg PUBLIC "-//W3C//DTD SVG 20010904//EN" "http://www.w3.org/TR/2001/REC-SVG-20010904/DTD/svg10.dtd">
<svg version="1.0" xmlns="http://www.w3.org/2000/svg" width="1602pt" height="604pt" viewBox="0 0 1602 604" preserveAspectRatio="xMidYMid meet">
<g fill="#977BEDFF">
<path d="M 1425.72 440.91 C 1413.82 438.11 1407.08 429.27 1401.81 409.57 L 1400.59 405.00 L 1351.39 405.00 L 1302.20 405.00 L 1299.48 412.75 C 1293.24 430.52 1289.37 435.61 1279.45 439.11 C 1271.69 441.84 1264.96 441.32 1257.31 437.40 C 1245.45 431.34 1242.51 420.50 1247.84 402.50 C 1260.24 360.60 1276.03 314.37 1288.99 282.00 C 1304.86 242.37 1324.24 202.25 1331.26 194.46 C 1348.08 175.81 1378.63 178.88 1390.98 200.46 C 1399.70 215.71 1422.46 287.44 1446.49 375.40 C 1449.03 384.70 1452.51 396.62 1454.23 401.90 C 1455.97 407.27 1457.36 413.72 1457.39 416.54 C 1457.48 427.93 1450.38 437.23 1439.20 440.36 C 1432.79 442.16 1431.30 442.22 1425.72 440.91ZM 1385.00 351.15 C 1385.00 348.29 1358.75 263.64 1357.05 261.01 C 1356.31 259.87 1355.12 261.63 1351.92 268.51 C 1344.01 285.59 1322.91 341.18 1321.32 349.17 L 1320.75 352.00 L 1352.88 352.00 C 1370.54 352.00 1385.00 351.62 1385.00 351.15Z"/></g>
<g fill="#272623FF">
<path d="M 1135.50 438.62 C 1128.88 435.49 1125.80 432.02 1121.63 423.00 C 1118.25 415.68 1114.00 401.24 1114.00 397.08 C 1114.00 393.35 1111.58 394.92 1107.00 401.65 C 1092.37 423.14 1072.84 434.70 1047.98 436.60 C 1032.53 437.78 1016.41 432.00 1004.80 421.12 C 988.95 406.26 980.85 381.46 982.38 352.50 C 983.17 337.55 984.39 329.79 987.59 319.20 C 992.87 301.70 1001.61 286.68 1013.55 274.56 C 1024.24 263.71 1036.50 256.74 1051.50 252.99 C 1065.96 249.37 1079.94 251.14 1093.77 258.32 C 1097.59 260.30 1099.15 260.70 1099.43 259.78 C 1099.94 258.09 1101.66 239.21 1103.02 220.50 C 1104.80 195.84 1105.96 186.87 1107.92 182.58 C 1114.88 167.37 1134.67 163.50 1147.30 174.88 C 1154.61 181.46 1155.46 184.78 1155.27 206.00 C 1155.18 216.18 1154.59 236.65 1153.95 251.50 C 1151.00 320.43 1156.01 371.38 1168.64 400.67 C 1174.51 414.29 1174.98 420.95 1170.60 428.42 C 1164.09 439.53 1147.58 444.33 1135.50 438.62ZM 1061.59 379.55 C 1073.63 371.60 1085.85 352.33 1092.52 330.76 C 1095.95 319.69 1095.49 316.67 1089.50 310.76 C 1077.08 298.52 1063.26 298.28 1051.19 310.10 C 1039.16 321.87 1031.46 349.52 1035.38 366.79 C 1037.78 377.34 1040.34 381.00 1047.00 383.39 C 1050.13 384.52 1056.69 382.79 1061.59 379.55Z"/></g>
<g fill="#272623FF">
<path d="M 839.76 440.06 C 832.61 437.75 827.37 432.62 822.62 423.24 C 819.56 417.21 815.56 405.32 814.54 399.25 C 814.15 396.91 813.44 395.00 812.98 395.00 C 812.52 395.00 809.68 398.49 806.67 402.75 C 794.73 419.69 779.78 430.77 763.09 435.06 C 755.91 436.90 753.19 437.12 744.47 436.52 C 727.02 435.33 714.95 429.82 702.23 417.25 C 689.08 404.24 684.04 389.76 683.25 362.79 C 682.70 343.60 683.93 335.18 689.70 318.57 C 701.16 285.61 720.40 264.55 747.28 255.54 C 762.71 250.37 778.18 251.37 792.64 258.49 C 796.57 260.42 800.00 262.00 800.26 262.00 C 800.87 262.00 801.80 251.13 803.07 229.00 C 805.40 188.42 805.58 186.68 807.74 182.50 C 811.56 175.11 817.27 171.26 825.69 170.37 C 834.32 169.47 840.93 171.30 846.39 176.11 C 854.14 182.94 854.00 181.70 854.45 247.09 C 854.97 323.19 856.22 345.20 861.53 372.00 C 863.78 383.38 865.53 389.17 871.87 406.23 C 874.66 413.72 874.57 419.29 871.56 425.50 C 868.21 432.40 866.29 434.50 860.50 437.59 C 855.08 440.49 844.85 441.71 839.76 440.06ZM 759.95 381.98 C 771.76 375.82 786.86 352.60 793.12 331.00 C 796.78 318.37 795.08 314.04 783.82 307.26 C 765.93 296.49 748.94 307.26 739.51 335.36 C 736.37 344.72 735.16 360.31 736.88 369.40 C 739.40 382.78 748.70 387.86 759.95 381.98Z"/></g>
<g fill="#272623FF">
<path d="M 325.50 439.45 C 298.28 433.56 279.70 410.46 278.26 380.74 C 277.86 372.37 278.13 368.59 279.47 363.74 C 286.98 336.66 309.62 323.25 353.34 320.02 C 363.29 319.28 366.88 319.47 381.51 321.50 L 386.53 322.20 L 388.39 311.74 C 390.59 299.34 389.87 295.69 384.32 291.11 C 371.98 280.94 355.84 285.63 333.55 305.87 C 326.10 312.62 322.81 314.01 314.28 313.97 C 300.41 313.91 291.42 307.43 290.31 296.71 C 289.61 289.97 291.05 285.89 297.67 275.85 C 308.61 259.24 325.36 247.07 346.52 240.35 C 354.81 237.72 356.69 237.50 371.00 237.52 C 388.90 237.55 396.46 239.20 410.78 246.20 C 428.22 254.71 435.36 264.15 440.42 285.33 C 441.89 291.49 443.93 308.95 446.04 333.50 C 448.47 361.72 452.88 380.22 461.78 399.50 C 468.11 413.22 469.13 418.76 466.56 425.49 C 464.47 430.95 456.76 438.15 451.24 439.81 C 444.60 441.80 436.55 441.31 431.18 438.59 C 423.04 434.47 414.46 422.79 408.89 408.27 C 407.58 404.84 406.10 402.16 405.60 402.32 C 405.11 402.47 401.94 406.17 398.56 410.54 C 384.36 428.90 364.26 439.66 342.50 440.56 C 335.86 440.83 330.15 440.46 325.50 439.45ZM 356.98 388.69 C 365.68 384.44 376.17 372.00 382.17 358.81 C 384.19 354.38 383.69 353.83 376.17 352.17 C 363.27 349.33 347.95 351.62 339.67 357.63 C 334.17 361.62 330.03 369.17 330.01 375.23 C 329.99 382.78 334.48 389.66 340.50 391.31 C 344.01 392.28 352.35 390.95 356.98 388.69Z"/></g>
<g fill="#272623FF">
<path d="M 144.75 442.59 C 108.58 433.01 81.00 402.53 71.91 362.08 C 69.33 350.58 68.40 327.05 69.88 310.40 C 74.66 256.60 108.20 198.82 145.13 180.75 C 158.02 174.45 164.23 172.85 178.02 172.27 C 188.75 171.83 191.64 172.05 198.29 173.88 C 221.34 180.20 240.03 198.81 245.60 220.98 C 249.33 235.81 243.58 249.92 231.73 255.02 C 227.63 256.78 225.20 257.13 218.92 256.84 C 207.76 256.34 204.04 253.57 197.89 241.18 C 190.75 226.81 185.96 223.13 175.93 224.32 C 166.30 225.46 157.52 232.41 148.58 245.98 C 133.60 268.73 125.08 296.29 124.88 322.72 C 124.49 372.15 146.19 399.13 179.37 390.49 C 192.73 387.01 201.82 380.48 212.09 366.98 C 215.06 363.06 219.45 358.57 221.83 356.99 C 233.63 349.17 250.60 354.28 257.05 367.60 C 260.38 374.49 259.54 385.09 254.87 395.00 C 245.59 414.69 223.64 432.83 200.50 439.95 C 182.84 445.39 159.49 446.49 144.75 442.59Z"/></g>
<g fill="#272623FF">
<path d="M 512.90 439.03 C 502.46 437.17 495.31 430.31 491.36 418.36 C 490.02 414.29 489.69 406.36 489.31 369.50 C 488.82 321.16 490.12 264.02 491.80 259.86 C 493.46 255.76 498.90 250.09 503.38 247.81 C 508.42 245.23 518.04 244.38 524.00 245.99 C 529.75 247.53 536.13 254.00 538.36 260.55 C 539.57 264.09 540.00 269.00 540.00 279.12 C 540.00 286.93 540.42 293.14 540.97 293.48 C 541.50 293.81 542.63 292.43 543.47 290.42 C 547.95 279.70 565.90 260.09 577.50 253.25 C 593.22 243.97 611.54 240.84 622.00 245.63 C 632.63 250.51 640.73 260.23 645.76 274.16 C 650.36 286.91 651.84 296.42 657.53 350.00 C 660.55 378.49 661.36 384.48 663.97 398.00 C 666.40 410.55 666.53 417.45 664.43 421.48 C 663.58 423.12 662.41 426.65 661.84 429.33 C 660.87 433.81 660.42 434.37 656.23 436.22 C 652.60 437.83 650.22 438.15 644.58 437.79 C 623.03 436.40 616.71 423.31 614.03 374.50 C 611.58 329.80 608.78 311.33 603.39 304.26 C 599.09 298.63 594.48 300.38 587.04 310.45 C 568.91 334.99 554.90 369.72 547.48 408.50 C 544.27 425.30 540.23 432.74 531.99 436.99 C 527.69 439.20 519.07 440.13 512.90 439.03Z"/></g>
<g fill="#977BEDFF">
<path d="M 1501.04 440.03 C 1498.03 438.91 1495.45 438.00 1495.29 438.00 C 1493.86 438.00 1486.89 430.17 1486.11 427.68 C 1483.99 420.96 1482.73 380.29 1482.62 315.00 C 1482.47 232.81 1483.74 202.53 1487.67 194.24 C 1490.58 188.08 1494.66 184.67 1502.37 181.96 C 1509.19 179.56 1511.67 179.52 1519.40 181.69 C 1523.84 182.94 1526.52 184.46 1529.49 187.44 C 1536.42 194.38 1537.24 197.21 1538.24 217.50 C 1539.55 244.17 1538.58 419.51 1537.10 424.22 C 1535.32 429.86 1530.03 436.11 1524.74 438.83 C 1518.10 442.25 1508.36 442.74 1501.04 440.03Z"/></g>
<g fill="#272623FF">
<path d="M 916.93 437.77 C 909.06 435.01 905.62 432.88 903.26 429.28 C 901.62 426.77 901.50 421.54 901.53 350.54 C 901.56 280.42 901.70 273.99 903.37 268.00 C 905.73 259.47 908.19 255.66 913.81 251.78 C 922.68 245.68 935.21 247.06 942.31 254.92 C 948.89 262.20 949.02 263.37 949.54 316.62 C 949.80 342.96 950.35 375.07 950.76 388.00 C 951.59 414.47 951.06 422.04 947.95 427.62 C 944.96 433.01 943.11 434.90 938.57 437.22 C 932.53 440.30 924.73 440.50 916.93 437.77Z"/></g>
<g fill="#272623FF">
<path d="M 936.76 214.43 C 931.82 211.75 930.65 207.90 929.93 192.00 C 929.21 176.20 927.80 171.24 922.42 165.61 C 919.37 162.42 910.24 158.02 902.50 156.01 C 891.82 153.24 887.54 147.95 889.99 140.54 C 891.65 135.49 896.37 133.03 907.57 131.36 C 917.60 129.87 925.96 126.73 929.86 122.98 C 935.89 117.20 940.89 105.36 944.01 89.50 C 945.90 79.91 948.19 75.61 952.51 73.56 C 955.70 72.05 956.89 71.95 960.15 72.93 C 966.70 74.89 967.42 77.04 968.07 96.45 C 968.59 111.86 968.89 114.11 971.26 119.79 C 975.07 128.90 979.10 133.47 986.32 136.88 C 989.72 138.48 994.08 140.12 996.00 140.52 C 1001.02 141.56 1008.75 145.67 1009.96 147.93 C 1011.68 151.13 1011.15 155.72 1008.75 158.48 C 1006.96 160.54 1004.76 161.39 998.00 162.63 C 981.46 165.68 976.83 166.98 972.69 169.74 C 967.43 173.24 961.07 182.80 956.98 193.37 C 951.57 207.35 949.66 211.11 946.71 213.59 C 943.45 216.34 940.70 216.57 936.76 214.43ZM 951.55 158.94 C 953.72 156.71 957.41 153.67 959.75 152.19 C 962.08 150.71 964.00 149.10 964.00 148.61 C 964.00 148.12 962.27 145.84 960.15 143.55 C 958.04 141.25 955.03 137.15 953.47 134.44 C 951.92 131.72 950.51 129.32 950.34 129.11 C 950.18 128.89 947.00 131.86 943.27 135.72 C 939.55 139.57 935.39 143.46 934.03 144.36 L 931.57 145.99 L 936.10 150.75 C 938.59 153.36 941.86 157.19 943.36 159.25 C 944.87 161.31 946.44 163.00 946.85 163.00 C 947.26 163.00 949.37 161.17 951.55 158.94Z"/></g>
<g fill="#272623FF">
<path d="M 988.45 207.25 C 987.31 201.90 986.04 200.06 982.11 198.06 C 979.92 196.94 977.88 195.61 977.56 195.10 C 977.25 194.59 978.99 193.41 981.43 192.47 C 985.78 190.81 989.00 186.66 989.00 182.72 C 989.00 181.91 989.66 180.69 990.48 180.02 C 992.05 178.71 992.83 179.89 994.74 186.50 C 995.35 188.64 996.87 190.15 1000.05 191.77 C 1002.50 193.01 1004.64 194.44 1004.81 194.94 C 1004.98 195.44 1003.04 196.77 1000.51 197.89 C 996.66 199.60 995.54 200.75 993.70 204.94 C 991.24 210.54 989.33 211.38 988.45 207.25Z"/></g>
</svg>
